<?xml version="1.0" standalone="no"?><svg xmlns="http://www.w3.org/2000/svg" viewBox="0 0 1440 320"><path fill="#F4F6F8" fill-opacity="1" d="M0,96L14.1,122.7C28.2,149,56,203,85,218.7C112.9,235,141,213,169,197.3C197.6,181,226,171,254,144C282.4,117,311,75,339,96C367.1,117,395,203,424,240C451.8,277,480,267,508,234.7C536.5,203,565,149,593,128C621.2,107,649,117,678,128C705.9,139,734,149,762,176C790.6,203,819,245,847,229.3C875.3,213,904,139,932,112C960,85,988,107,1016,117.3C1044.7,128,1073,128,1101,154.7C1129.4,181,1158,235,1186,229.3C1214.1,224,1242,160,1271,122.7C1298.8,85,1327,75,1355,74.7C1383.5,75,1412,85,1426,90.7L1440,96L1440,0L1425.9,0C1411.8,0,1384,0,1355,0C1327.1,0,1299,0,1271,0C1242.4,0,1214,0,1186,0C1157.6,0,1129,0,1101,0C1072.9,0,1045,0,1016,0C988.2,0,960,0,932,0C903.5,0,875,0,847,0C818.8,0,791,0,762,0C734.1,0,706,0,678,0C649.4,0,621,0,593,0C564.7,0,536,0,508,0C480,0,452,0,424,0C395.3,0,367,0,339,0C310.6,0,282,0,254,0C225.9,0,198,0,169,0C141.2,0,113,0,85,0C56.5,0,28,0,14,0L0,0Z"></path></svg>